<svg width="99" height="99" viewBox="0 0 99 99" fill="none" xmlns="http://www.w3.org/2000/svg">
<path d="M69 82H30C22.82 82 17 76.18 17 69V30C17 22.82 22.82 17 30 17H69C76.18 17 82 22.82 82 30V69C82 76.18 76.179 82 69 82ZM19 30V69C19 75.075 23.925 80 30 80H69C75.075 80 80 75.075 80 69V30C80 23.925 75.075 19 69 19H30C23.924 19 19 23.925 19 30Z" fill="#1F212B"/>
<path d="M69.3001 81.18H30.6901C24.1561 81.18 18.8101 75.834 18.8101 69.3V30.69C18.8101 24.156 24.1561 18.81 30.6901 18.81H69.3001C75.8341 18.81 81.1801 24.156 81.1801 30.69V69.3C81.1801 75.834 75.8341 81.18 69.3001 81.18Z" fill="white"/>
<path d="M66.7269 37.125H45.2855C44.4975 37.125 43.7421 36.8121 43.1857 36.2548L40.9652 34.0342C40.4078 33.4768 39.6524 33.164 38.8654 33.164H33.165C30.978 33.164 29.205 34.9371 29.205 37.124V62.766C29.205 65.0074 31.0216 66.824 33.263 66.824H66.7269C68.9683 66.824 70.785 65.0074 70.785 62.766V41.183C70.785 38.9416 68.9683 37.125 66.7269 37.125Z" fill="#3070B7" stroke="#78A2D2" stroke-miterlimit="10"/>
<path d="M67.815 42.075C67.815 40.981 66.929 40.095 65.835 40.095H34.155C33.0611 40.095 32.175 40.981 32.175 42.075H67.815Z" fill="white"/>
<path d="M66.5013 77.2081H33.5095C27.5844 77.2081 22.7809 72.4046 22.7809 66.4795V33.4867C22.7809 27.5616 27.5844 22.7581 33.5095 22.7581H66.8359C67.1091 22.7581 67.3309 22.9799 67.3309 23.2531C67.3309 23.5264 67.1091 23.7481 66.8359 23.7481H33.5095C28.1308 23.7481 23.7709 28.1081 23.7709 33.4867V66.4785C23.7709 71.8572 28.1318 76.2181 33.5105 76.2181H66.5023C71.8809 76.2181 76.2409 71.8582 76.2409 66.4795V48.0031C76.2409 47.7299 76.4626 47.5081 76.7359 47.5081C77.0091 47.5081 77.2309 47.7299 77.2309 48.0031V66.4785C77.2309 72.4046 72.4264 77.2081 66.5013 77.2081ZM76.7359 45.1113C76.4626 45.1113 76.2409 44.8896 76.2409 44.6163V40.6563C76.2409 40.3831 76.4626 40.1613 76.7359 40.1613C77.0091 40.1613 77.2309 40.3831 77.2309 40.6563V44.6163C77.2309 44.8906 77.0091 45.1113 76.7359 45.1113ZM76.7359 39.1713C76.4626 39.1713 76.2409 38.9496 76.2409 38.6763V36.6963C76.2409 36.4231 76.4626 36.2013 76.7359 36.2013C77.0091 36.2013 77.2309 36.4231 77.2309 36.6963V38.6763C77.2309 38.9506 77.0091 39.1713 76.7359 39.1713Z" fill="#1F212B"/>
<path d="M63.855 58.41H36.135C32.3076 58.41 29.205 55.3073 29.205 51.48V45.1816L30.0247 44.3045C30.7672 43.5105 31.775 43.065 32.8244 43.065H67.8555C68.4783 43.065 69.0911 43.2185 69.6395 43.5115L70.783 44.1233V51.48C70.785 55.3073 67.6823 58.41 63.855 58.41Z" fill="#3A83C1"/>
<path d="M70.6157 43.7164H29.3742L29.205 46.53C29.205 50.3573 32.3076 53.46 36.135 53.46H63.855C67.6823 53.46 70.785 50.3573 70.785 46.53L70.6157 43.7164Z" fill="#40A6DD"/>
<path d="M69.7505 42.4948L68.9367 41.8186L31.2573 41.8691L30.4871 42.5086C30.4871 42.5086 29.303 42.9036 29.4842 43.5224C30.3267 46.3993 32.9858 48.5011 36.136 48.5011H63.856C66.8636 48.5011 69.4238 46.5855 70.3821 43.9075C70.6424 43.1779 69.7505 42.4948 69.7505 42.4948Z" fill="#31C4F3"/>
<path d="M66.7269 37.125H45.2855C44.4975 37.125 43.7421 36.8121 43.1857 36.2548L40.9652 34.0342C40.4078 33.4768 39.6524 33.164 38.8654 33.164H33.165C30.978 33.164 29.205 34.9371 29.205 37.124V62.766C29.205 65.0074 31.0216 66.824 33.263 66.824H66.7269C68.9683 66.824 70.785 65.0074 70.785 62.766V41.183C70.785 38.9416 68.9683 37.125 66.7269 37.125Z" stroke="#1F212B" stroke-miterlimit="10" stroke-linecap="round" stroke-linejoin="round"/>
<path d="M29.205 44.055L29.3742 43.7164C29.8772 42.7106 30.9058 42.075 32.0304 42.075H67.9595C69.0841 42.075 70.1128 42.7106 70.6157 43.7164L70.785 44.055" stroke="#1F212B" stroke-miterlimit="10" stroke-linecap="round" stroke-linejoin="round"/>
<path d="M67.815 42.075C67.815 40.981 66.929 40.095 65.835 40.095H34.155C33.0611 40.095 32.175 40.981 32.175 42.075H67.815Z" stroke="#1F212B" stroke-miterlimit="10" stroke-linecap="round" stroke-linejoin="round"/>
</svg>
