<svg width="100" height="100" viewBox="0 0 100 100" fill="none" xmlns="http://www.w3.org/2000/svg">
<g id="icons8-files 1">
<path id="Vector" d="M70 82H31C24.4 82 19 76.6 19 70V31C19 24.4 24.4 19 31 19H70C76.6 19 82 24.4 82 31V70C82 76.6 76.6 82 70 82Z" fill="white"/>
<path id="Vector_2" d="M67.401 37.5H45.743C44.947 37.5 44.184 37.184 43.622 36.621L41.379 34.378C40.816 33.815 40.053 33.499 39.258 33.499H33.5C31.291 33.499 29.5 35.29 29.5 37.499V63.4C29.5 65.664 31.335 67.499 33.599 67.499H67.401C69.665 67.499 71.5 65.664 71.5 63.4V41.599C71.5 39.335 69.665 37.5 67.401 37.5Z" fill="#3070B7" stroke="#78A2D2" stroke-miterlimit="10"/>
<path id="Vector_3" d="M68.5 42.5C68.5 41.395 67.605 40.5 66.5 40.5H34.5C33.395 40.5 32.5 41.395 32.5 42.5H68.5Z" fill="white"/>
<path id="Vector_4" d="M70.011 82.988H31.011C23.831 82.988 18.011 77.168 18.011 69.988V30.988C18.011 23.808 23.831 17.988 31.011 17.988H70.011C77.191 17.988 83.011 23.808 83.011 30.988V69.988C83.011 77.168 77.19 82.988 70.011 82.988ZM20.011 30.988V69.988C20.011 76.063 24.936 80.988 31.011 80.988H70.011C76.086 80.988 81.011 76.063 81.011 69.988V30.988C81.011 24.913 76.086 19.988 70.011 19.988H31.011C24.935 19.988 20.011 24.913 20.011 30.988Z" fill="#1F212B"/>
<path id="Vector_5" d="M67.173 77.988H33.848C27.863 77.988 23.011 73.136 23.011 67.151V33.825C23.011 27.84 27.863 22.988 33.848 22.988H67.511C67.787 22.988 68.011 23.212 68.011 23.488C68.011 23.764 67.787 23.988 67.511 23.988H33.848C28.415 23.988 24.011 28.392 24.011 33.825V67.15C24.011 72.583 28.416 76.988 33.849 76.988H67.174C72.607 76.988 77.011 72.584 77.011 67.151V48.488C77.011 48.212 77.235 47.988 77.511 47.988C77.787 47.988 78.011 48.212 78.011 48.488V67.15C78.011 73.136 73.158 77.988 67.173 77.988ZM77.511 45.567C77.235 45.567 77.011 45.343 77.011 45.067V41.067C77.011 40.791 77.235 40.567 77.511 40.567C77.787 40.567 78.011 40.791 78.011 41.067V45.067C78.011 45.344 77.787 45.567 77.511 45.567ZM77.511 39.567C77.235 39.567 77.011 39.343 77.011 39.067V37.067C77.011 36.791 77.235 36.567 77.511 36.567C77.787 36.567 78.011 36.791 78.011 37.067V39.067C78.011 39.344 77.787 39.567 77.511 39.567Z" fill="#1F212B"/>
<path id="Vector_6" d="M64.5 59H36.5C32.634 59 29.5 55.866 29.5 52V45.638L30.328 44.752C31.078 43.95 32.096 43.5 33.156 43.5H68.541C69.17 43.5 69.789 43.655 70.343 43.951L71.498 44.569V52C71.5 55.866 68.366 59 64.5 59Z" fill="#3A83C1"/>
<path id="Vector_7" d="M71.329 44.158H29.671L29.5 47C29.5 50.866 32.634 54 36.5 54H64.5C68.366 54 71.5 50.866 71.5 47L71.329 44.158Z" fill="#40A6DD"/>
<path id="Vector_8" d="M70.455 42.924L69.633 42.241L31.573 42.292L30.795 42.938C30.795 42.938 29.599 43.337 29.782 43.962C30.633 46.868 33.319 48.991 36.501 48.991H64.501C67.539 48.991 70.125 47.056 71.093 44.351C71.356 43.614 70.455 42.924 70.455 42.924Z" fill="#31C4F3"/>
<path id="Vector_9" d="M67.401 37.5H45.743C44.947 37.5 44.184 37.184 43.622 36.621L41.379 34.378C40.816 33.815 40.053 33.499 39.258 33.499H33.5C31.291 33.499 29.5 35.29 29.5 37.499V63.4C29.5 65.664 31.335 67.499 33.599 67.499H67.401C69.665 67.499 71.5 65.664 71.5 63.4V41.599C71.5 39.335 69.665 37.5 67.401 37.5Z" stroke="#1F212B" stroke-miterlimit="10" stroke-linecap="round" stroke-linejoin="round"/>
<path id="Vector_10" d="M29.5 44.5L29.671 44.158C30.179 43.142 31.218 42.5 32.354 42.5H68.646C69.782 42.5 70.821 43.142 71.329 44.158L71.5 44.5" stroke="#1F212B" stroke-miterlimit="10" stroke-linecap="round" stroke-linejoin="round"/>
<path id="Vector_11" d="M68.5 42.5C68.5 41.395 67.605 40.5 66.5 40.5H34.5C33.395 40.5 32.5 41.395 32.5 42.5H68.5Z" stroke="#1F212B" stroke-miterlimit="10" stroke-linecap="round" stroke-linejoin="round"/>
</g>
</svg>
